<svg width="122" height="24" viewBox="0 0 122 24" fill="none" xmlns="http://www.w3.org/2000/svg">
<path d="M35.8658 12.1763C35.8658 18.644 30.6999 23.8877 24.3282 23.8877C23.919 23.8877 23.5142 23.8658 23.1158 23.8241C27.7883 23.263 31.4114 19.2303 31.4114 14.3362C31.4114 9.05855 27.1967 4.78033 21.9973 4.78033C17.476 4.78033 13.6995 8.01639 12.7927 12.3319C12.7905 12.2804 12.7905 12.2278 12.7905 12.1763C12.7905 5.70852 17.9564 0.464844 24.3282 0.464844C30.6999 0.464844 35.8658 5.70852 35.8658 12.1763Z" fill="#22A081"/>
<path d="M11.7568 23.42C18.1275 23.2973 23.194 17.9539 23.0731 11.4872C23.0656 11.0719 23.0364 10.662 22.9878 10.2577C22.5236 15.0104 18.6209 18.7637 13.8005 18.8569C8.60114 18.9588 4.30759 14.7627 4.20826 9.48619C4.12189 4.89784 7.23761 1.00316 11.4707 0.000453919C11.42 -0.000641938 11.3681 0.000453919 11.3174 0.00154978C4.94779 0.125382 -0.119837 5.46768 0.00215718 11.9343C0.124152 18.401 5.3861 23.5438 11.7568 23.42Z" fill="#22A081"/>
<path d="M51.5593 7.06908V6.29133C51.5593 4.29435 49.9638 2.6748 47.9965 2.6748C46.0291 2.6748 44.4336 4.29435 44.4336 6.29133V17.7036C44.4336 19.7006 46.0291 21.3202 47.9965 21.3202C49.9638 21.3202 51.5593 19.7006 51.5593 17.7036V16.9693C51.5593 16.7795 51.4083 16.6262 51.2213 16.6262C51.0342 16.6262 50.8833 16.7795 50.8833 16.9693V17.7036C50.8833 18.5134 50.561 19.2431 50.0382 19.7761C49.5154 20.3068 48.7942 20.6339 47.9965 20.6339C47.1987 20.6339 46.4798 20.3068 45.9547 19.7761C45.4319 19.2454 45.1097 18.5157 45.1097 17.7036V6.29133C45.1097 5.48156 45.4319 4.75185 45.9547 4.21886C46.4776 3.68816 47.1987 3.36105 47.9965 3.36105C48.7942 3.36105 49.5131 3.68816 50.0382 4.21886C50.561 4.74956 50.8833 5.48156 50.8833 6.29133V7.06908C50.8833 7.25894 51.0342 7.4122 51.2213 7.4122C51.4083 7.4122 51.5593 7.25894 51.5593 7.06908Z" fill="white"/>
<path d="M112.789 7.06908V6.29133C112.789 4.29435 111.193 2.6748 109.226 2.6748C107.259 2.6748 105.663 4.29435 105.663 6.29133V17.7036C105.663 19.7006 107.259 21.3202 109.226 21.3202C111.193 21.3202 112.789 19.7006 112.789 17.7036V16.9693C112.789 16.7795 112.638 16.6262 112.451 16.6262C112.264 16.6262 112.113 16.7795 112.113 16.9693V17.7036C112.113 18.5134 111.79 19.2431 111.268 19.7761C110.745 20.3068 110.024 20.6339 109.226 20.6339C108.428 20.6339 107.709 20.3068 107.184 19.7761C106.661 19.2454 106.339 18.5134 106.339 17.7036V6.29133C106.339 5.48156 106.661 4.75185 107.184 4.21886C107.707 3.68816 108.428 3.36105 109.226 3.36105C110.024 3.36105 110.743 3.68816 111.268 4.21886C111.79 4.74956 112.113 5.48156 112.113 6.29133V7.06908C112.113 7.25894 112.264 7.4122 112.451 7.4122C112.638 7.4122 112.789 7.25894 112.789 7.06908Z" fill="white"/>
<path d="M61.1192 17.7036H61.4573V6.29133C61.4573 4.29435 59.8618 2.6748 57.8944 2.6748C55.9271 2.6748 54.3315 4.29435 54.3315 6.29133V17.7036C54.3315 19.7006 55.9271 21.3202 57.8944 21.3202C59.8618 21.3202 61.4573 19.7006 61.4573 17.7036H61.1192H60.7812C60.7812 18.5134 60.4589 19.2431 59.9361 19.7761C59.4133 20.3068 58.6922 20.6339 57.8944 20.6339C57.0966 20.6339 56.3778 20.3068 55.8527 19.7761C55.3299 19.2454 55.0076 18.5134 55.0076 17.7036V6.29133C55.0076 5.48156 55.3299 4.75185 55.8527 4.21886C56.3755 3.68816 57.0966 3.36105 57.8944 3.36105C58.6922 3.36105 59.411 3.68816 59.9361 4.21886C60.4589 4.74956 60.7812 5.48156 60.7812 6.29133V17.7036H61.1192Z" fill="white"/>
<path d="M64.0353 12.2605H69.9757C70.1627 12.2605 70.3137 12.1072 70.3137 11.9173C70.3137 11.7275 70.1627 11.5742 69.9757 11.5742H64.0353C63.8483 11.5742 63.6973 11.7275 63.6973 11.9173C63.6973 12.1072 63.8483 12.2605 64.0353 12.2605Z" fill="white"/>
<path d="M78.615 11.4154L72.4515 4.40424L71.0498 2.77783V18.5478H72.4515V6.54304L77.7969 12.6232L78.615 11.4154Z" fill="white"/>
<path d="M73.4937 12.7084L79.6594 19.7218L81.0611 21.3483V5.58057H79.6594V17.583L74.3477 11.5418L73.4937 12.7084Z" fill="white"/>
<path d="M80.738 5.02709C80.9791 5.02709 81.1954 5.12545 81.3532 5.28558C81.5109 5.4457 81.6079 5.6653 81.6079 5.91006C81.6079 5.98097 81.5988 6.0496 81.5831 6.11594C81.5695 6.1777 81.6056 6.23946 81.6664 6.25318C81.7273 6.26691 81.7881 6.23031 81.8017 6.16855C81.8219 6.0862 81.831 5.99927 81.831 5.91006C81.831 5.29701 81.3419 4.79834 80.7357 4.79834C80.6726 4.79834 80.623 4.84866 80.623 4.91271C80.6253 4.97676 80.6749 5.02709 80.738 5.02709Z" fill="white"/>
<path d="M80.7923 4.33884C81.6216 4.36858 82.2864 5.0594 82.2864 5.91035C82.2864 5.98583 82.2819 6.06132 82.2707 6.13223C82.2616 6.194 82.3045 6.25347 82.3653 6.26262C82.4262 6.27177 82.4847 6.22831 82.4938 6.16655C82.505 6.0842 82.5118 5.99727 82.5118 5.91264C82.5118 4.94045 81.7523 4.14669 80.8013 4.11238C80.7382 4.11009 80.6864 4.16042 80.6842 4.22218C80.6819 4.28394 80.7315 4.33655 80.7923 4.33884Z" fill="white"/>
<path d="M81.0446 3.67934C82.124 3.8326 82.9533 4.77276 82.9533 5.90964C82.9533 5.97598 82.9511 6.04232 82.9443 6.10866C82.9398 6.17271 82.9849 6.2276 83.048 6.23218C83.1111 6.23675 83.1652 6.191 83.1697 6.12696C83.1764 6.05604 83.1787 5.98284 83.1787 5.90964C83.1787 4.65609 82.2638 3.62215 81.0761 3.45288C81.0153 3.44373 80.9567 3.48719 80.9499 3.55124C80.9409 3.613 80.9837 3.67247 81.0446 3.67934Z" fill="white"/>
<path d="M81.2115 2.97935C82.6019 3.2081 83.6633 4.43419 83.6633 5.90962C83.6633 5.97367 83.7129 6.024 83.776 6.024C83.8391 6.024 83.8887 5.97367 83.8887 5.90962C83.8887 4.31982 82.7461 3.00223 81.2475 2.75518C81.1867 2.74603 81.1281 2.7872 81.1191 2.84897C81.1078 2.91073 81.1484 2.9702 81.2115 2.97935Z" fill="white"/>
<path d="M82.4762 12.2605H88.4166C88.6036 12.2605 88.7546 12.1072 88.7546 11.9173C88.7546 11.7275 88.6036 11.5742 88.4166 11.5742H82.4762C82.2892 11.5742 82.1382 11.7275 82.1382 11.9173C82.1382 12.1072 82.2892 12.2605 82.4762 12.2605Z" fill="white"/>
<path d="M87.9791 3.49387H94.9584C95.1454 3.49387 95.2964 3.3406 95.2964 3.15074C95.2964 2.96088 95.1454 2.80762 94.9584 2.80762H87.9791C87.7921 2.80762 87.6411 2.96088 87.6411 3.15074C87.6411 3.33832 87.7921 3.49387 87.9791 3.49387Z" fill="white"/>
<path d="M91.1289 3.15074V21.35C91.1289 21.5399 91.2799 21.6932 91.4669 21.6932C91.654 21.6932 91.805 21.5399 91.805 21.35V3.15074C91.805 2.96088 91.654 2.80762 91.4669 2.80762C91.2799 2.80762 91.1289 2.96088 91.1289 3.15074Z" fill="white"/>
<path d="M114.684 3.49387H121.663C121.851 3.49387 122.002 3.3406 122.002 3.15074C122.002 2.96088 121.851 2.80762 121.663 2.80762H114.684C114.497 2.80762 114.346 2.96088 114.346 3.15074C114.346 3.33832 114.497 3.49387 114.684 3.49387Z" fill="white"/>
<path d="M117.834 3.15074V21.35C117.834 21.5399 117.985 21.6932 118.173 21.6932C118.36 21.6932 118.511 21.5399 118.511 21.35V3.15074C118.511 2.96088 118.36 2.80762 118.173 2.80762C117.985 2.80762 117.834 2.96088 117.834 3.15074Z" fill="white"/>
<path d="M103.249 21.2405L98.9512 2.19482L94.4734 21.2771C94.4351 21.4441 94.5365 21.6088 94.6988 21.65C94.8633 21.6888 95.0255 21.5859 95.0661 21.4212L98.94 4.91008L102.656 21.3777C102.694 21.5447 102.857 21.6477 103.021 21.6088C103.183 21.5722 103.285 21.4075 103.249 21.2405Z" fill="white"/>
</svg>
