<svg width="111" height="25" viewBox="0 0 111 25" fill="none" xmlns="http://www.w3.org/2000/svg">
<path d="M50.6038 7.92635V7.25951C50.6038 5.54729 49.2358 4.15869 47.5489 4.15869C45.8621 4.15869 44.4941 5.54729 44.4941 7.25951V17.0444C44.4941 18.7567 45.8621 20.1453 47.5489 20.1453C49.2358 20.1453 50.6038 18.7567 50.6038 17.0444V16.4149C50.6038 16.2521 50.4743 16.1207 50.3139 16.1207C50.1536 16.1207 50.0241 16.2521 50.0241 16.4149V17.0444C50.0241 17.7388 49.7478 18.3644 49.2995 18.8214C48.8513 19.2764 48.2329 19.5569 47.5489 19.5569C46.865 19.5569 46.2486 19.2764 45.7984 18.8214C45.3501 18.3664 45.0738 17.7407 45.0738 17.0444V7.25951C45.0738 6.56521 45.3501 5.93955 45.7984 5.48257C46.2466 5.02755 46.865 4.74708 47.5489 4.74708C48.2329 4.74708 48.8493 5.02755 49.2995 5.48257C49.7478 5.93759 50.0241 6.56521 50.0241 7.25951V7.92635C50.0241 8.08914 50.1536 8.22055 50.3139 8.22055C50.4743 8.22055 50.6038 8.08914 50.6038 7.92635Z" fill="white"/>
<path d="M103.102 7.92635V7.25951C103.102 5.54729 101.734 4.15869 100.047 4.15869C98.3602 4.15869 96.9922 5.54729 96.9922 7.25951V17.0444C96.9922 18.7567 98.3602 20.1453 100.047 20.1453C101.734 20.1453 103.102 18.7567 103.102 17.0444V16.4149C103.102 16.2521 102.972 16.1207 102.812 16.1207C102.652 16.1207 102.522 16.2521 102.522 16.4149V17.0444C102.522 17.7388 102.246 18.3644 101.798 18.8214C101.349 19.2764 100.731 19.5569 100.047 19.5569C99.363 19.5569 98.7466 19.2764 98.2964 18.8214C97.8482 18.3664 97.5718 17.7388 97.5718 17.0444V7.25951C97.5718 6.56521 97.8482 5.93955 98.2964 5.48257C98.7447 5.02755 99.363 4.74708 100.047 4.74708C100.731 4.74708 101.347 5.02755 101.798 5.48257C102.246 5.93759 102.522 6.56521 102.522 7.25951V7.92635C102.522 8.08914 102.652 8.22055 102.812 8.22055C102.972 8.22055 103.102 8.08914 103.102 7.92635Z" fill="white"/>
<path d="M58.8003 17.0444H59.0901V7.25951C59.0901 5.54729 57.7221 4.15869 56.0353 4.15869C54.3485 4.15869 52.9805 5.54729 52.9805 7.25951V17.0444C52.9805 18.7567 54.3485 20.1453 56.0353 20.1453C57.7221 20.1453 59.0901 18.7567 59.0901 17.0444H58.8003H58.5104C58.5104 17.7388 58.2341 18.3644 57.7859 18.8214C57.3376 19.2764 56.7193 19.5569 56.0353 19.5569C55.3513 19.5569 54.7349 19.2764 54.2847 18.8214C53.8364 18.3664 53.5601 17.7388 53.5601 17.0444V7.25951C53.5601 6.56521 53.8364 5.93955 54.2847 5.48257C54.733 5.02755 55.3513 4.74708 56.0353 4.74708C56.7193 4.74708 57.3356 5.02755 57.7859 5.48257C58.2341 5.93759 58.5104 6.56521 58.5104 7.25951V17.0444H58.8003Z" fill="white"/>
<path d="M61.3006 12.377H66.3939C66.5542 12.377 66.6837 12.2456 66.6837 12.0828C66.6837 11.92 66.5542 11.7886 66.3939 11.7886H61.3006C61.1402 11.7886 61.0107 11.92 61.0107 12.0828C61.0107 12.2456 61.1402 12.377 61.3006 12.377Z" fill="white"/>
<path d="M73.8018 11.6529L68.5173 5.64155L67.3154 4.24707V17.7683H68.5173V7.47537L73.1004 12.6885L73.8018 11.6529Z" fill="white"/>
<path d="M69.4102 12.7613L74.6967 18.7747L75.8985 20.1692V6.6499H74.6967V16.9409L70.1425 11.7611L69.4102 12.7613Z" fill="white"/>
<path d="M75.622 6.17513C75.8287 6.17513 76.0142 6.25947 76.1495 6.39676C76.2847 6.53405 76.3678 6.72233 76.3678 6.93219C76.3678 6.99299 76.3601 7.05184 76.3466 7.10872C76.335 7.16167 76.3659 7.21462 76.418 7.22639C76.4702 7.23816 76.5224 7.20678 76.534 7.15382C76.5514 7.08322 76.5591 7.00868 76.5591 6.93219C76.5591 6.40656 76.1398 5.979 75.62 5.979C75.5659 5.979 75.5234 6.02215 75.5234 6.07707C75.5254 6.13199 75.5679 6.17513 75.622 6.17513Z" fill="white"/>
<path d="M75.668 5.58486C76.3791 5.61035 76.9491 6.20267 76.9491 6.93227C76.9491 6.99699 76.9452 7.06172 76.9355 7.12252C76.9278 7.17547 76.9645 7.22647 77.0167 7.23431C77.0689 7.24216 77.1191 7.2049 77.1268 7.15194C77.1365 7.08133 77.1423 7.0068 77.1423 6.93423C77.1423 6.10068 76.4911 5.42011 75.6757 5.39069C75.6216 5.38873 75.5772 5.43188 75.5753 5.48483C75.5733 5.53779 75.6158 5.5829 75.668 5.58486Z" fill="white"/>
<path d="M75.8849 5.01992C76.8104 5.15132 77.5215 5.95742 77.5215 6.93219C77.5215 6.98906 77.5196 7.04595 77.5138 7.10282C77.5099 7.15774 77.5485 7.20481 77.6026 7.20873C77.6567 7.21265 77.7031 7.17343 77.707 7.11851C77.7128 7.05771 77.7147 6.99495 77.7147 6.93219C77.7147 5.85739 76.9302 4.97089 75.912 4.82575C75.8598 4.8179 75.8096 4.85517 75.8038 4.91008C75.796 4.96304 75.8327 5.01403 75.8849 5.01992Z" fill="white"/>
<path d="M76.0281 4.41986C77.2203 4.61599 78.1303 5.66724 78.1303 6.93228C78.1303 6.9872 78.1728 7.03035 78.2269 7.03035C78.281 7.03035 78.3236 6.9872 78.3236 6.93228C78.3236 5.56918 77.3439 4.43947 76.059 4.22765C76.0068 4.21981 75.9566 4.25511 75.9489 4.30807C75.9392 4.36102 75.974 4.41201 76.0281 4.41986Z" fill="white"/>
<path d="M77.1121 12.377H82.2054C82.3657 12.377 82.4952 12.2456 82.4952 12.0828C82.4952 11.92 82.3657 11.7886 82.2054 11.7886H77.1121C76.9517 11.7886 76.8223 11.92 76.8223 12.0828C76.8223 12.2456 76.9517 12.377 77.1121 12.377Z" fill="white"/>
<path d="M81.8299 4.86085H87.8139C87.9743 4.86085 88.1037 4.72944 88.1037 4.56666C88.1037 4.40387 87.9743 4.27246 87.8139 4.27246H81.8299C81.6695 4.27246 81.54 4.40387 81.54 4.56666C81.54 4.72748 81.6695 4.86085 81.8299 4.86085Z" fill="white"/>
<path d="M84.5312 4.56666V20.1708C84.5312 20.3336 84.6607 20.465 84.8211 20.465C84.9815 20.465 85.1109 20.3336 85.1109 20.1708V4.56666C85.1109 4.40387 84.9815 4.27246 84.8211 4.27246C84.6607 4.27246 84.5312 4.40387 84.5312 4.56666Z" fill="white"/>
<path d="M104.726 4.86085H110.71C110.871 4.86085 111 4.72944 111 4.56666C111 4.40387 110.871 4.27246 110.71 4.27246H104.726C104.566 4.27246 104.437 4.40387 104.437 4.56666C104.437 4.72748 104.566 4.86085 104.726 4.86085Z" fill="white"/>
<path d="M107.428 4.56666V20.1708C107.428 20.3336 107.557 20.465 107.718 20.465C107.878 20.465 108.007 20.3336 108.007 20.1708V4.56666C108.007 4.40387 107.878 4.27246 107.718 4.27246C107.557 4.27246 107.428 4.40387 107.428 4.56666Z" fill="white"/>
<path d="M94.9225 20.0769L91.2378 3.74707L87.3985 20.1083C87.3657 20.2514 87.4526 20.3926 87.5918 20.428C87.7328 20.4613 87.8719 20.373 87.9067 20.2318L91.2282 6.07514L94.4144 20.1946C94.4472 20.3377 94.5863 20.426 94.7274 20.3926C94.8665 20.3613 94.9534 20.2201 94.9225 20.0769Z" fill="white"/>
<path d="M36.1634 12.2774C36.1634 18.7989 30.9547 24.0861 24.53 24.0861C24.1174 24.0861 23.7092 24.064 23.3075 24.0221C28.0188 23.4563 31.672 19.3901 31.672 14.4553C31.672 9.13384 27.4223 4.82008 22.1798 4.82008C17.6209 4.82008 13.8131 8.08302 12.8987 12.4344C12.8965 12.3824 12.8965 12.3294 12.8965 12.2774C12.8965 5.75598 18.1053 0.46875 24.53 0.46875C30.9547 0.46875 36.1634 5.75598 36.1634 12.2774Z" fill="white"/>
<path d="M11.8545 23.6145C18.2781 23.4908 23.3867 18.103 23.2648 11.5826C23.2572 11.1639 23.2278 10.7506 23.1788 10.3429C22.7107 15.1351 18.7755 18.9196 13.9151 19.0135C8.67258 19.1163 4.34337 14.8854 4.24322 9.56498C4.15613 4.93852 7.29773 1.0115 11.566 0.000457689C11.5148 -0.00064727 11.4626 0.000457689 11.4114 0.00156265C4.98888 0.126423 -0.120833 5.5131 0.0021751 12.0335C0.125183 18.5538 5.43084 23.7394 11.8545 23.6145Z" fill="white"/>
</svg>
